<?xml version="1.0" encoding="utf-8"?>
<!-- Generator: Adobe Illustrator 16.0.0, SVG Export Plug-In . SVG Version: 6.00 Build 0)  -->
<!DOCTYPE svg PUBLIC "-//W3C//DTD SVG 1.1//EN" "http://www.w3.org/Graphics/SVG/1.1/DTD/svg11.dtd">
<svg version="1.1" id="Layer_1" xmlns="http://www.w3.org/2000/svg" xmlns:xlink="http://www.w3.org/1999/xlink" x="0px" y="0px"
	 width="1366px" height="768px" viewBox="0 0 1366 768" enable-background="new 0 0 1366 768" xml:space="preserve">
<rect fill="#240B58" width="1375.792" height="774.286"/>
<polygon fill="#D1C718" points="939.169,116.688 940.681,117.483 940.391,115.8 941.614,114.609 939.925,114.364 939.169,112.833 
	938.413,114.364 936.725,114.609 937.947,115.8 937.658,117.483 "/>
<polygon fill="#D1C718" points="1003.491,31.391 1005.001,32.186 1004.713,30.503 1005.935,29.312 1004.245,29.066 1003.491,27.535 
	1002.734,29.066 1001.045,29.312 1002.268,30.503 1001.979,32.186 "/>
<polygon fill="#D1C718" points="1043.348,101.614 1044.858,102.409 1044.57,100.727 1045.793,99.535 1044.104,99.289 
	1043.348,97.758 1042.592,99.289 1040.902,99.535 1042.126,100.727 1041.836,102.409 "/>
<polygon fill="#D1C718" points="1140.044,36.042 1141.556,36.837 1141.266,35.155 1142.488,33.962 1140.8,33.718 1140.044,32.186 
	1139.288,33.718 1137.599,33.962 1138.822,35.155 1138.533,36.837 "/>
<path fill="#D1C718" d="M1165.707,174.777"/>
<polygon fill="#D1C718" points="1326.729,103.94 1328.24,104.734 1327.952,103.051 1329.174,101.86 1327.484,101.614 
	1326.729,100.083 1325.974,101.614 1324.284,101.86 1325.507,103.051 1325.218,104.734 "/>
<polygon fill="#D1C718" points="1321.838,36.042 1323.35,36.837 1323.063,35.155 1324.284,33.962 1322.595,33.718 1321.838,32.186 
	1321.083,33.718 1319.394,33.962 1320.616,35.155 1320.327,36.837 "/>
<polygon fill="#D1C718" points="1309.699,168.676 1311.211,169.471 1310.923,167.788 1312.145,166.596 1310.455,166.351 
	1309.699,164.82 1308.943,166.351 1307.254,166.596 1308.478,167.788 1308.188,169.471 "/>
<polygon fill="#D1C718" points="1218.358,267.135 1219.87,267.93 1219.582,266.247 1220.805,265.056 1219.115,264.81 
	1218.358,263.279 1217.604,264.81 1215.915,265.056 1217.137,266.247 1216.849,267.93 "/>
<polygon fill="#D1C718" points="951.379,191.823 952.89,192.617 952.602,190.934 953.823,189.743 952.135,189.497 951.379,187.965 
	950.622,189.497 948.935,189.743 950.156,190.934 949.866,192.617 "/>
<polygon fill="#D1C718" points="1208.487,101.614 1209.999,102.409 1209.71,100.727 1210.933,99.535 1209.243,99.289 
	1208.487,97.758 1207.733,99.289 1206.043,99.535 1207.266,100.727 1206.977,102.409 "/>
<polygon fill="#D1C718" points="884.771,43.802 886.28,44.596 885.992,42.914 887.214,41.722 885.524,41.477 884.771,39.945 
	884.014,41.477 882.324,41.722 883.547,42.914 883.258,44.596 "/>
<polygon fill="#D1C718" points="1208.487,187.172 1209.999,187.965 1209.71,186.284 1210.933,185.092 1209.243,184.847 
	1208.487,183.316 1207.733,184.847 1206.043,185.092 1207.266,186.284 1206.977,187.965 "/>
<polygon fill="#D1C718" points="1239.436,17.356 1240.946,18.15 1240.658,16.467 1241.88,15.276 1240.19,15.03 1239.436,13.499 
	1238.68,15.03 1236.99,15.276 1238.212,16.467 1237.924,18.15 "/>
<polygon fill="#D1C718" points="1082.759,157.261 1084.27,158.055 1083.981,156.372 1085.203,155.18 1083.514,154.935 
	1082.759,153.404 1082.002,154.935 1080.313,155.18 1081.537,156.372 1081.246,158.055 "/>
<polygon fill="#D1C718" points="785.262,7.058 786.772,7.852 786.484,6.169 787.706,4.978 786.019,4.732 785.262,3.2 784.506,4.732 
	782.817,4.978 784.039,6.169 783.75,7.852 "/>
</svg>
