<?xml version="1.0" encoding="utf-8"?>
<!-- Generator: Adobe Illustrator 16.0.0, SVG Export Plug-In . SVG Version: 6.00 Build 0)  -->
<!DOCTYPE svg PUBLIC "-//W3C//DTD SVG 1.1//EN" "http://www.w3.org/Graphics/SVG/1.1/DTD/svg11.dtd">
<svg version="1.1" id="Layer_1" xmlns="http://www.w3.org/2000/svg" xmlns:xlink="http://www.w3.org/1999/xlink" x="0px" y="0px"
	 width="1366px" height="760px" viewBox="0 0 1366 760" enable-background="new 0 0 1366 760" xml:space="preserve">
<path fill="#FAF9FD" d="M1353.281,349.614c-10.108,1.416-18.027,7.205-27.148,11.394c-24.766,11.376-48.261,25.306-76.346,25.583
	c-29.099,0.288-59.19,0.364-87.738-4.161c-31.63-5.014-61.422-16.374-93.441-20.327c-38.085-4.7-76.709-3.185-114.929-7.449
	c-35.908-4.007-68.182-11.47-100.114-29.249c-24.652-13.728-49.027-27.664-74.185-40.32c-37.459-18.846-73.268-39.642-113.507-52.19
	c-25.585-7.978-51.496-15.354-76.149-24.855c-28.925-11.146-60.34-18.43-87-33.702c-21.073-12.072-39.535-24.784-58.424-40.138
	c-22.256-18.089-43.025-38.342-59.186-61.66c-7.262-10.479-22.5-44.853-24.689-72.144H0v322.17h0.712V760h642.87H1366V349.872
	C1361.812,349.321,1357.584,349.011,1353.281,349.614z"/>
<polygon fill="#FAF9FD" points="0,322.567 0,451.998 0,760 0.712,760 0.712,322.567 "/>
<g>
	<line fill="none" stroke="#C6C6C6" stroke-width="2" stroke-miterlimit="10" x1="1095.127" y1="111.083" x2="1095.127" y2="0"/>
	<linearGradient id="SVGID_1_" gradientUnits="userSpaceOnUse" x1="1095.1279" y1="49.6489" x2="1095.1279" y2="530.2183">
		<stop  offset="0" style="stop-color:#F09423"/>
		<stop  offset="0.2213" style="stop-color:#F09A23"/>
		<stop  offset="0.5175" style="stop-color:#F0AB23"/>
		<stop  offset="0.8547" style="stop-color:#F0C723"/>
		<stop  offset="1" style="stop-color:#F0D523"/>
	</linearGradient>
	<path fill="url(#SVGID_1_)" d="M1141.327,280.778c0-106.484-70.07-196.774-167.11-228.303c12.177-1.858,24.652-2.826,37.354-2.826
		c134.239,0,243.061,107.58,243.061,240.285s-108.821,240.284-243.061,240.284c-26.523,0-52.05-4.216-75.947-11.982
		C1052.125,500.472,1141.327,400.924,1141.327,280.778z"/>
</g>
</svg>
