<?xml version="1.0" encoding="utf-8"?>
<!-- Generator: Adobe Illustrator 16.0.0, SVG Export Plug-In . SVG Version: 6.00 Build 0)  -->
<!DOCTYPE svg PUBLIC "-//W3C//DTD SVG 1.1//EN" "http://www.w3.org/Graphics/SVG/1.1/DTD/svg11.dtd">
<svg version="1.1" id="Layer_1" xmlns="http://www.w3.org/2000/svg" xmlns:xlink="http://www.w3.org/1999/xlink" x="0px" y="0px"
	 width="1366px" height="768px" viewBox="0 0 1366 768" enable-background="new 0 0 1366 768" xml:space="preserve">
<path fill="#4641A3" d="M1322.25,290.589c-29.988,9.495-59.572,29.4-92.507,31.562c-26.735,1.755-56.254,1.967-81.455-4.831
	c-28.115-7.584-52.364-19.948-80.835-28.521c-51.432-15.487-106.129-18.305-159.107-22.938
	c-46.279-4.047-77.938-30.484-117.21-52.781c-38.239-21.71-74.516-32.459-115.75-46.337
	c-37.254-12.539-91.075-32.915-115.864-66.062c-13.04-17.436-23.201-39.338-25.326-61.029C533.066,28.127,533.97,12.59,539.026,0H0
	v768h1364.621V283.825C1349.176,284.002,1333.527,287.018,1322.25,290.589z"/>
</svg>
