<?xml version="1.0" encoding="utf-8"?>
<!-- Generator: Adobe Illustrator 16.0.0, SVG Export Plug-In . SVG Version: 6.00 Build 0)  -->
<!DOCTYPE svg PUBLIC "-//W3C//DTD SVG 1.1//EN" "http://www.w3.org/Graphics/SVG/1.1/DTD/svg11.dtd">
<svg version="1.1" id="Layer_1" xmlns="http://www.w3.org/2000/svg" xmlns:xlink="http://www.w3.org/1999/xlink" x="0px" y="0px"
	 width="1366px" height="768px" viewBox="0 0 1366 768" enable-background="new 0 0 1366 768" xml:space="preserve">
<path fill="#2E0063" d="M1365.334,184.684c-50.256,3.132-96.221,31.434-147.164,31.922c-27.115,0.26-49.432-1.643-72.625-15.817
	c-8.367-5.115-14.26-12.228-22.274-17.541c-10.481-6.946-23.381-10.36-35.113-14.585c-44.368-15.978-90.196-16.948-136.875-24.587
	c-19.129-3.129-42.221-10.346-57.924-21.596c-15.534-11.127-27.305-29.528-38.691-44.62c-11.719-15.531-22.966-27.906-38.607-39.379
	c-11.681-8.568-47.578-19.755-45.863-38.398L770.28,0H0v768h1365.334V184.684z"/>
</svg>
