<?xml version="1.0" encoding="utf-8"?>
<!-- Generator: Adobe Illustrator 16.0.0, SVG Export Plug-In . SVG Version: 6.00 Build 0)  -->
<!DOCTYPE svg PUBLIC "-//W3C//DTD SVG 1.1//EN" "http://www.w3.org/Graphics/SVG/1.1/DTD/svg11.dtd">
<svg version="1.1" id="Layer_1" xmlns="http://www.w3.org/2000/svg" xmlns:xlink="http://www.w3.org/1999/xlink" x="0px" y="0px"
	 width="1366px" height="768px" viewBox="0 0 1366 768" enable-background="new 0 0 1366 768" xml:space="preserve">
<path fill="#5B57F4" d="M1366,234.365c-3.417,0.157-6.86,0.366-10.224,0.366c-30.357,0.004-55.78,6.732-84.376,16.002
	c-24.571,7.966-45.623,20.003-71.926,20.261c-50.939,0.498-94.978-30.308-144.553-39.459c-26.935-4.972-54.412-6.468-82.215-6.403
	c-27.48,0.063-52.112-5.85-77.375-16.745c-38.092-16.427-72.422-44.111-107.835-65.704c-31.449-19.175-69.334-29.164-100.282-49.013
	C655.22,73.151,619.567,41.188,625.249,0H0v767.975h1366V234.365z"/>
<linearGradient id="SVGID_1_" gradientUnits="userSpaceOnUse" x1="693.626" y1="219.3145" x2="906.4404" y2="219.3145">
	<stop  offset="0" style="stop-color:#58B6FF"/>
	<stop  offset="1" style="stop-color:#7D3DE6"/>
</linearGradient>
<circle fill="url(#SVGID_1_)" cx="800.033" cy="219.314" r="106.407"/>
<line fill="none" stroke="#C6C6C6" stroke-width="2" stroke-miterlimit="10" x1="800.032" y1="112.908" x2="800.032" y2="0.6"/>
</svg>
