<?xml version="1.0" encoding="utf-8"?>
<!-- Generator: Adobe Illustrator 16.0.0, SVG Export Plug-In . SVG Version: 6.00 Build 0)  -->
<!DOCTYPE svg PUBLIC "-//W3C//DTD SVG 1.1//EN" "http://www.w3.org/Graphics/SVG/1.1/DTD/svg11.dtd">
<svg version="1.1" id="Layer_1" xmlns="http://www.w3.org/2000/svg" xmlns:xlink="http://www.w3.org/1999/xlink" x="0px" y="0px"
	 width="1920px" height="1080px" viewBox="0 0 1920 1080" enable-background="new 0 0 1920 1080" xml:space="preserve">
<rect y="-0.563" fill="#240B58" width="1920" height="1080.563"/>
<polygon fill="#D1C718" points="1310.667,162.283 1312.775,163.392 1312.373,161.043 1314.079,159.38 1311.722,159.038 
	1310.667,156.901 1309.612,159.038 1307.255,159.38 1308.961,161.043 1308.558,163.392 "/>
<polygon fill="#D1C718" points="1400.431,43.246 1402.539,44.354 1402.137,42.006 1403.843,40.343 1401.485,40 1400.431,37.864 
	1399.376,40 1397.019,40.343 1398.725,42.006 1398.321,44.354 "/>
<polygon fill="#D1C718" points="1456.055,141.246 1458.163,142.354 1457.761,140.006 1459.467,138.343 1457.109,138 
	1456.055,135.864 1455,138 1452.643,138.343 1454.349,140.006 1453.945,142.354 "/>
<polygon fill="#D1C718" points="1591,49.736 1593.108,50.844 1592.706,48.496 1594.412,46.833 1592.055,46.49 1591,44.354 
	1589.945,46.49 1587.588,46.833 1589.294,48.496 1588.891,50.844 "/>
<path fill="#D1C718" d="M1626.814,243.348"/>
<polygon fill="#D1C718" points="1851.53,144.491 1853.639,145.599 1853.236,143.251 1854.942,141.588 1852.585,141.245 
	1851.53,139.109 1850.476,141.245 1848.118,141.588 1849.824,143.251 1849.421,145.599 "/>
<polygon fill="#D1C718" points="1844.706,49.736 1846.814,50.844 1846.412,48.496 1848.118,46.833 1845.761,46.49 1844.706,44.354 
	1843.651,46.49 1841.294,46.833 1843,48.496 1842.597,50.844 "/>
<polygon fill="#D1C718" points="1827.765,234.834 1829.873,235.942 1829.471,233.594 1831.177,231.931 1828.819,231.588 
	1827.765,229.452 1826.71,231.588 1824.353,231.931 1826.059,233.594 1825.655,235.942 "/>
<polygon fill="#D1C718" points="1700.294,372.24 1702.402,373.348 1702,371 1703.706,369.337 1701.349,368.994 1700.294,366.858 
	1699.239,368.994 1696.882,369.337 1698.588,371 1698.185,373.348 "/>
<polygon fill="#D1C718" points="1327.706,267.137 1329.814,268.245 1329.412,265.897 1331.118,264.234 1328.761,263.891 
	1327.706,261.755 1326.651,263.891 1324.294,264.234 1326,265.897 1325.597,268.245 "/>
<polygon fill="#D1C718" points="1686.518,141.246 1688.626,142.354 1688.224,140.006 1689.93,138.343 1687.572,138 
	1686.518,135.864 1685.463,138 1683.105,138.343 1684.812,140.006 1684.408,142.354 "/>
<polygon fill="#D1C718" points="1234.749,60.565 1236.857,61.673 1236.455,59.325 1238.161,57.662 1235.804,57.319 1234.749,55.183 
	1233.694,57.319 1231.337,57.662 1233.043,59.325 1232.64,61.673 "/>
<polygon fill="#D1C718" points="1686.518,260.646 1688.626,261.755 1688.224,259.407 1689.93,257.744 1687.572,257.401 
	1686.518,255.265 1685.463,257.401 1683.105,257.744 1684.812,259.407 1684.408,261.755 "/>
<polygon fill="#D1C718" points="1729.706,23.658 1731.814,24.766 1731.412,22.418 1733.118,20.755 1730.761,20.412 1729.706,18.276 
	1728.651,20.412 1726.294,20.755 1728,22.418 1727.597,24.766 "/>
<polygon fill="#D1C718" points="1511.055,218.903 1513.163,220.011 1512.761,217.663 1514.467,216 1512.109,215.657 
	1511.055,213.521 1510,215.657 1507.643,216 1509.349,217.663 1508.945,220.011 "/>
<polygon fill="#D1C718" points="1095.88,9.286 1097.988,10.394 1097.586,8.046 1099.292,6.383 1096.935,6.04 1095.88,3.904 
	1094.825,6.04 1092.468,6.383 1094.174,8.046 1093.771,10.394 "/>
</svg>
