<?xml version="1.0" encoding="utf-8"?>
<!-- Generator: Adobe Illustrator 16.0.0, SVG Export Plug-In . SVG Version: 6.00 Build 0)  -->
<!DOCTYPE svg PUBLIC "-//W3C//DTD SVG 1.1//EN" "http://www.w3.org/Graphics/SVG/1.1/DTD/svg11.dtd">
<svg version="1.1" id="Layer_1" xmlns="http://www.w3.org/2000/svg" xmlns:xlink="http://www.w3.org/1999/xlink" x="0px" y="0px"
	 width="1920px" height="1080px" viewBox="0 0 1920 1080" enable-background="new 0 0 1920 1080" xml:space="preserve">
<path fill="#4641A3" d="M1860.383,407.854c-42.191,13.359-83.816,41.366-130.154,44.408c-37.616,2.469-79.147,2.768-114.606-6.797
	c-39.557-10.671-73.675-28.065-113.732-40.127c-72.364-21.79-149.323-25.755-223.86-32.273
	c-65.115-5.694-109.659-42.891-164.914-74.262c-53.802-30.545-104.842-45.669-162.859-65.196
	c-52.417-17.642-128.141-46.311-163.02-92.948c-18.346-24.531-32.642-55.347-35.632-85.867c-1.589-16.216-0.317-38.078,6.796-55.792
	H0v1080.563h1920V398.338C1898.268,398.586,1876.252,402.829,1860.383,407.854z"/>
</svg>
