<?xml version="1.0" encoding="utf-8"?>
<!-- Generator: Adobe Illustrator 16.0.0, SVG Export Plug-In . SVG Version: 6.00 Build 0)  -->
<!DOCTYPE svg PUBLIC "-//W3C//DTD SVG 1.1//EN" "http://www.w3.org/Graphics/SVG/1.1/DTD/svg11.dtd">
<svg version="1.1" id="Layer_1" xmlns="http://www.w3.org/2000/svg" xmlns:xlink="http://www.w3.org/1999/xlink" x="0px" y="0px"
	 width="1920px" height="1080px" viewBox="0 0 1920 1080" enable-background="new 0 0 1920 1080" xml:space="preserve">
<path fill="#FAF9FD" d="M1902.124,496.515c-14.208,2.013-25.341,10.244-38.16,16.2c-34.808,16.175-67.833,35.979-107.309,36.375
	c-40.899,0.41-83.196,0.519-123.322-5.916c-44.456-7.129-86.333-23.281-131.338-28.9c-53.528-6.684-107.819-4.53-161.538-10.593
	c-50.473-5.697-95.834-16.308-140.717-41.586c-34.65-19.516-68.912-39.331-104.271-57.326
	c-52.652-26.796-102.982-56.362-159.542-74.204c-35.96-11.344-72.38-21.831-107.031-35.339
	c-40.656-15.849-84.813-26.205-122.284-47.917c-29.621-17.164-55.569-35.238-82.12-57.067
	c-31.282-25.719-60.475-54.515-83.19-87.668C531.095,87.676,509.676,38.804,506.601,0H0v458.06h1V1080h903.595H1920V496.882
	C1914.113,496.1,1908.172,495.658,1902.124,496.515z"/>
<polygon fill="#FAF9FD" points="0,458.06 0,642.086 0,1080 1,1080 1,458.06 "/>
<g>
	
		<line fill="none" stroke="#C6C6C6" stroke-width="2" stroke-miterlimit="10" x1="1539.271" y1="157.375" x2="1539.271" y2="-0.563"/>
	<linearGradient id="SVGID_1_" gradientUnits="userSpaceOnUse" x1="1539.2715" y1="70.0278" x2="1539.2715" y2="753.2974">
		<stop  offset="0" style="stop-color:#F09423"/>
		<stop  offset="0.2213" style="stop-color:#F09A23"/>
		<stop  offset="0.5175" style="stop-color:#F0AB23"/>
		<stop  offset="0.8547" style="stop-color:#F0C723"/>
		<stop  offset="1" style="stop-color:#F0D523"/>
	</linearGradient>
	<path fill="url(#SVGID_1_)" d="M1604.207,398.645c0-151.396-98.488-279.771-234.883-324.601c17.115-2.64,34.65-4.016,52.505-4.016
		c188.68,0,341.636,152.956,341.636,341.635s-152.956,341.634-341.636,341.634c-37.282,0-73.161-5.994-106.75-17.035
		C1478.83,711.004,1604.207,569.467,1604.207,398.645z"/>
</g>
</svg>
