<?xml version="1.0" encoding="utf-8"?>
<!-- Generator: Adobe Illustrator 16.0.0, SVG Export Plug-In . SVG Version: 6.00 Build 0)  -->
<!DOCTYPE svg PUBLIC "-//W3C//DTD SVG 1.1//EN" "http://www.w3.org/Graphics/SVG/1.1/DTD/svg11.dtd">
<svg version="1.1" id="Layer_1" xmlns="http://www.w3.org/2000/svg" xmlns:xlink="http://www.w3.org/1999/xlink" x="0px" y="0px"
	 width="1920px" height="1080px" viewBox="0 0 1920 1080" enable-background="new 0 0 1920 1080" xml:space="preserve">
<path fill="#2E0063" d="M1920,259.712c-70.671,4.404-135.312,44.205-206.949,44.891c-38.132,0.365-69.514-2.309-102.13-22.243
	c-11.766-7.191-20.052-17.196-31.323-24.666c-14.739-9.768-32.879-14.569-49.378-20.51
	c-62.392-22.468-126.839-23.834-192.479-34.576c-26.899-4.402-59.373-14.55-81.457-30.37
	c-21.844-15.648-38.396-41.524-54.408-62.746c-16.48-21.842-32.295-39.243-54.291-55.377
	c-16.428-12.049-66.907-27.782-64.497-53.998L1083.205,0H0v1080h1920V259.712z"/>
</svg>
