<?xml version="1.0" encoding="utf-8"?>
<!-- Generator: Adobe Illustrator 16.0.0, SVG Export Plug-In . SVG Version: 6.00 Build 0)  -->
<!DOCTYPE svg PUBLIC "-//W3C//DTD SVG 1.1//EN" "http://www.w3.org/Graphics/SVG/1.1/DTD/svg11.dtd">
<svg version="1.1" id="Layer_1" xmlns="http://www.w3.org/2000/svg" xmlns:xlink="http://www.w3.org/1999/xlink" x="0px" y="0px"
	 width="60px" height="60px" viewBox="0 0 60 60" enable-background="new 0 0 60 60" xml:space="preserve">
<g>
	<path fill="#511B4B" d="M24.204,34.83v-0.363v-0.361v-8.331v-0.361h0.033c-0.02,0.119-0.033,0.24-0.033,0.361
		c0-2.354,3.729-4.396,9.208-5.433H4.51c-1.925,0-3.485,1.56-3.485,3.485v11.38c0,1.926,1.561,3.485,3.485,3.485h19.694V34.83z"/>
</g>
<g>
	<path fill="#944888" d="M24.237,52.215h-0.033v-8.692v-0.363v-0.361v-4.105H4.51c-1.925,0-3.485,1.56-3.485,3.485v11.38
		c0,1.928,1.561,3.487,3.485,3.487h27.736C27.683,56.011,24.57,54.246,24.237,52.215z"/>
</g>
<path fill="#944888" d="M53.557,20.342H4.51c-1.925,0-3.485-1.561-3.485-3.485V5.476c0-1.924,1.561-3.485,3.485-3.485h49.046
	c1.926,0,3.487,1.561,3.487,3.485v11.379C57.043,18.781,55.481,20.342,53.557,20.342z"/>
<circle fill="#D3BAD0" cx="10.199" cy="11.166" r="3.381"/>
<circle fill="#D3BAD0" cx="48.35" cy="9.718" r="0.966"/>
<circle fill="#D3BAD0" cx="44.486" cy="9.718" r="0.966"/>
<circle fill="#D3BAD0" cx="50.281" cy="12.615" r="0.966"/>
<circle fill="#D3BAD0" cx="46.419" cy="12.615" r="0.966"/>
<circle fill="#D3BAD0" cx="40.624" cy="9.718" r="0.966"/>
<circle fill="#D3BAD0" cx="42.555" cy="12.615" r="0.966"/>
<circle fill="#D3BAD0" cx="36.76" cy="9.718" r="0.966"/>
<circle fill="#D3BAD0" cx="38.691" cy="12.615" r="0.966"/>
<circle fill="#D3BAD0" cx="32.896" cy="9.718" r="0.966"/>
<circle fill="#D3BAD0" cx="34.829" cy="12.615" r="0.966"/>
<circle fill="#D3BAD0" cx="10.199" cy="29.518" r="3.381"/>
<circle fill="#D3BAD0" cx="10.199" cy="47.869" r="3.381"/>
<g>
	<path fill="#632A5C" d="M41.589,48.11c-9.601,0-17.385-2.756-17.385-6.159v10.264h0.033c0.529,3.231,8.095,5.795,17.352,5.795
		s16.823-2.563,17.353-5.795h0.033V41.951C58.975,45.354,51.19,48.11,41.589,48.11z"/>
	<path fill="#632A5C" d="M24.204,41.59v0.361c0-0.121,0.014-0.242,0.033-0.361H24.204z"/>
	<path fill="#632A5C" d="M58.941,41.59c0.021,0.119,0.033,0.24,0.033,0.361V41.59H58.941z"/>
</g>
<g>
	<path fill="#8C4684" d="M41.589,37.728c-9.601,0-17.385-2.758-17.385-6.158v10.746h0.033c0.529,3.231,8.095,5.795,17.352,5.795
		s16.823-2.563,17.353-5.795h0.033V31.569C58.975,34.97,51.19,37.728,41.589,37.728z"/>
	<path fill="#8C4684" d="M24.204,31.208v0.361c0-0.122,0.014-0.243,0.033-0.361H24.204z"/>
	<path fill="#8C4684" d="M58.941,31.208c0.021,0.118,0.033,0.239,0.033,0.361v-0.361H58.941z"/>
</g>
<ellipse fill="#D6C9D5" cx="41.589" cy="21.67" rx="17.386" ry="6.157"/>
<g>
	<path fill="#BA95B7" d="M41.589,27.827c-9.601,0-17.385-2.755-17.385-6.157v10.263h0.033c0.529,3.231,8.095,5.795,17.352,5.795
		s16.823-2.563,17.353-5.795h0.033V21.669C58.975,25.071,51.19,27.827,41.589,27.827z"/>
	<path fill="#BA95B7" d="M24.204,21.308v0.361c0-0.121,0.014-0.243,0.033-0.361H24.204z"/>
	<path fill="#BA95B7" d="M58.941,21.308c0.021,0.119,0.033,0.24,0.033,0.361v-0.361H58.941z"/>
</g>
</svg>
