<?xml version="1.0" encoding="utf-8"?>
<!-- Generator: Adobe Illustrator 16.0.0, SVG Export Plug-In . SVG Version: 6.00 Build 0)  -->
<!DOCTYPE svg PUBLIC "-//W3C//DTD SVG 1.1//EN" "http://www.w3.org/Graphics/SVG/1.1/DTD/svg11.dtd">
<svg version="1.1" id="Layer_1" xmlns="http://www.w3.org/2000/svg" xmlns:xlink="http://www.w3.org/1999/xlink" x="0px" y="0px"
	 width="60px" height="60px" viewBox="0 0 60 60" enable-background="new 0 0 60 60" xml:space="preserve">
<path fill="#42143F" d="M59.961,21.518c0.007-0.027,0.017-0.053,0.021-0.079c0.017-0.121,0.014-0.243-0.011-0.362
	c-0.005-0.029-0.019-0.055-0.025-0.083c-0.018-0.058-0.028-0.119-0.057-0.174c-0.019-0.037-0.046-0.066-0.067-0.101
	c-0.011-0.018-0.013-0.039-0.025-0.055l-8.035-11.25c-0.113-0.158-0.266-0.26-0.431-0.335c-0.107-0.245-0.297-0.45-0.551-0.561
	l-9.91-4.286c-0.133-0.057-0.277-0.088-0.425-0.088H19.554c-0.146,0-0.289,0.031-0.424,0.088L9.22,8.518
	C8.966,8.628,8.776,8.833,8.669,9.079C8.505,9.154,8.351,9.256,8.237,9.414l-8.035,11.25c-0.012,0.017-0.014,0.037-0.025,0.055
	c-0.021,0.035-0.05,0.064-0.067,0.101c-0.026,0.055-0.038,0.116-0.056,0.174c-0.008,0.028-0.02,0.054-0.025,0.083
	c-0.024,0.119-0.027,0.241-0.01,0.362c0.004,0.026,0.014,0.052,0.02,0.079c0.021,0.094,0.055,0.184,0.102,0.271
	c0.018,0.032,0.034,0.063,0.055,0.094c0.016,0.021,0.023,0.047,0.041,0.07L29.16,58.377c0.009,0.01,0.022,0.014,0.031,0.025
	c0.093,0.107,0.199,0.195,0.323,0.258c0.02,0.012,0.04,0.016,0.061,0.025c0.133,0.057,0.274,0.096,0.424,0.096
	c0.15,0,0.293-0.039,0.426-0.096c0.02-0.01,0.04-0.016,0.061-0.025c0.123-0.063,0.229-0.15,0.322-0.258
	c0.009-0.012,0.021-0.016,0.031-0.025l28.926-36.425c0.017-0.022,0.025-0.048,0.041-0.07c0.021-0.031,0.036-0.062,0.054-0.094
	C59.906,21.702,59.939,21.612,59.961,21.518z"/>
<g>
	<polygon fill="#C172B8" points="19.776,6.287 40.223,6.287 47.904,9.608 40.174,13.786 19.825,13.786 12.096,9.608 	"/>
	<polygon fill="#C172B8" points="16.866,33.07 43.132,33.07 29.999,55.584 	"/>
</g>
<g>
	<polygon fill="#894C89" points="16.909,30.926 20.659,15.929 39.372,15.929 43.727,30.926 	"/>
	<path fill="#894C89" d="M3.008,20.422l6.849-9.589l8.693,4.699l-3.643,14.571L3.065,20.455C3.049,20.44,3.026,20.436,3.008,20.422z
		"/>
</g>
<g>
	<path fill="#C172B8" d="M13.94,32.08c0.012,0.16,0.053,0.316,0.136,0.459l7.464,12.795L5.649,25.324L13.94,32.08z"/>
	<path fill="#C172B8" d="M38.458,45.336l7.466-12.797c0.083-0.143,0.123-0.299,0.135-0.459l8.292-6.756L38.458,45.336z"/>
</g>
<path fill="#894C89" d="M45.601,29.69l-4.117-14.175l8.66-4.681l6.849,9.589c-0.019,0.014-0.041,0.018-0.059,0.032L45.601,29.69z"/>
</svg>
