<?xml version="1.0" encoding="utf-8"?>
<!-- Generator: Adobe Illustrator 16.0.0, SVG Export Plug-In . SVG Version: 6.00 Build 0)  -->
<!DOCTYPE svg PUBLIC "-//W3C//DTD SVG 1.1//EN" "http://www.w3.org/Graphics/SVG/1.1/DTD/svg11.dtd">
<svg version="1.1" id="Layer_1" xmlns="http://www.w3.org/2000/svg" xmlns:xlink="http://www.w3.org/1999/xlink" x="0px" y="0px"
	 width="60px" height="60px" viewBox="0 0 60 60" enable-background="new 0 0 60 60" xml:space="preserve">
<path fill="#C691C4" d="M56.958,7.19H3.043c-1.718,0-3.11,1.393-3.11,3.11v39.399c0,1.719,1.393,3.111,3.11,3.111h53.915
	c1.717,0,3.109-1.393,3.109-3.111V10.3C60.067,8.583,58.675,7.19,56.958,7.19z M51.773,9.263h1.036c0.573,0,1.037,0.465,1.037,1.037
	c0,0.573-0.464,1.037-1.037,1.037h-1.036c-0.572,0-1.037-0.464-1.037-1.037C50.736,9.728,51.201,9.263,51.773,9.263z M22.742,9.263
	h24.885c0.571,0,1.036,0.465,1.036,1.037c0,0.573-0.465,1.037-1.036,1.037H22.742c-0.572,0-1.037-0.464-1.037-1.037
	C21.705,9.728,22.17,9.263,22.742,9.263z M17.558,9.263h1.037c0.573,0,1.037,0.465,1.037,1.037c0,0.573-0.464,1.037-1.037,1.037
	h-1.037c-0.572,0-1.037-0.464-1.037-1.037C16.521,9.728,16.985,9.263,17.558,9.263z M13.411,9.263h1.037
	c0.572,0,1.037,0.465,1.037,1.037c0,0.573-0.465,1.037-1.037,1.037h-1.037c-0.572,0-1.037-0.464-1.037-1.037
	C12.374,9.728,12.839,9.263,13.411,9.263z M9.263,9.263c0.573,0,1.037,0.465,1.037,1.037c0,0.573-0.464,1.037-1.037,1.037
	c-0.572,0-1.035-0.464-1.035-1.037C8.228,9.728,8.69,9.263,9.263,9.263z M6.153,9.263c0.572,0,1.036,0.465,1.036,1.037
	c0,0.573-0.464,1.037-1.036,1.037S5.116,10.873,5.116,10.3C5.116,9.728,5.58,9.263,6.153,9.263z M3.043,9.263
	c0.572,0,1.036,0.465,1.036,1.037c0,0.573-0.464,1.037-1.036,1.037c-0.573,0-1.037-0.464-1.037-1.037
	C2.006,9.728,2.47,9.263,3.043,9.263z M57.995,19.632v30.067c0,0.574-0.466,1.037-1.037,1.037H30H3.043
	c-0.573,0-1.037-0.463-1.037-1.037V19.632v-5.185c0-0.572,0.464-1.037,1.037-1.037H30h26.958c0.571,0,1.037,0.464,1.037,1.037
	V19.632z M56.958,11.337h-1.037c-0.572,0-1.037-0.464-1.037-1.037s0.465-1.037,1.037-1.037h1.037c0.571,0,1.037,0.464,1.037,1.037
	S57.529,11.337,56.958,11.337z"/>
<path fill="#F7EBF6" d="M30,50.736h26.958c0.571,0,1.037-0.463,1.037-1.037V19.632H30V50.736z M45.553,24.816v-1.037
	c0-0.572,0.464-1.037,1.037-1.037h7.257c0.573,0,1.037,0.465,1.037,1.037v1.037v8.294c0,0.573-0.464,1.037-1.037,1.037H46.59
	c-0.573,0-1.037-0.464-1.037-1.037V24.816z M33.11,24.816v-1.037c0-0.572,0.465-1.037,1.036-1.037h7.259
	c0.572,0,1.037,0.465,1.037,1.037v1.037v8.294c0,0.573-0.465,1.037-1.037,1.037h-7.259c-0.571,0-1.036-0.464-1.036-1.037V24.816
	L33.11,24.816z M34.146,37.259h1.038h18.662c0.573,0,1.037,0.464,1.037,1.037v8.294c0,0.571-0.464,1.037-1.037,1.037H35.185h-1.038
	c-0.571,0-1.036-0.466-1.036-1.037v-8.294C33.11,37.723,33.575,37.259,34.146,37.259z"/>
<circle fill="#944888" cx="3.043" cy="10.3" r="1.037"/>
<circle fill="#944888" cx="6.153" cy="10.3" r="1.037"/>
<circle fill="#944888" cx="9.263" cy="10.3" r="1.037"/>
<g>
	<path fill="#DD9BD9" d="M13.411,11.337h1.037c0.572,0,1.037-0.464,1.037-1.037s-0.465-1.037-1.037-1.037h-1.037
		c-0.572,0-1.037,0.464-1.037,1.037S12.839,11.337,13.411,11.337z"/>
	<path fill="#DD9BD9" d="M17.558,11.337h1.037c0.573,0,1.037-0.464,1.037-1.037s-0.464-1.037-1.037-1.037h-1.037
		c-0.572,0-1.037,0.464-1.037,1.037S16.985,11.337,17.558,11.337z"/>
	<path fill="#DD9BD9" d="M51.773,11.337h1.036c0.573,0,1.037-0.464,1.037-1.037s-0.464-1.037-1.037-1.037h-1.036
		c-0.572,0-1.037,0.464-1.037,1.037S51.201,11.337,51.773,11.337z"/>
	<path fill="#DD9BD9" d="M56.958,9.263h-1.037c-0.572,0-1.037,0.465-1.037,1.037c0,0.573,0.465,1.037,1.037,1.037h1.037
		c0.571,0,1.037-0.464,1.037-1.037C57.995,9.728,57.529,9.263,56.958,9.263z"/>
	<path fill="#DD9BD9" d="M22.742,11.337h24.885c0.571,0,1.036-0.464,1.036-1.037s-0.465-1.037-1.036-1.037H22.742
		c-0.572,0-1.037,0.464-1.037,1.037S22.17,11.337,22.742,11.337z"/>
</g>
<path fill="#944888" d="M56.958,13.411H30v6.221h27.995v-5.185C57.995,13.875,57.529,13.411,56.958,13.411z M37.258,17.558H33.11
	c-0.572,0-1.037-0.464-1.037-1.037c0-0.573,0.465-1.037,1.037-1.037h4.147c0.572,0,1.037,0.464,1.037,1.037
	C38.295,17.094,37.83,17.558,37.258,17.558z M45.553,17.558h-4.147c-0.572,0-1.037-0.464-1.037-1.037
	c0-0.573,0.465-1.037,1.037-1.037h4.147c0.573,0,1.037,0.464,1.037,1.037C46.59,17.094,46.126,17.558,45.553,17.558z M53.847,17.558
	h-4.147c-0.572,0-1.037-0.464-1.037-1.037c0-0.573,0.465-1.037,1.037-1.037h4.147c0.573,0,1.037,0.464,1.037,1.037
	C54.884,17.094,54.42,17.558,53.847,17.558z"/>
<g>
	<path fill="#70496C" d="M37.258,15.484H33.11c-0.572,0-1.037,0.464-1.037,1.037c0,0.572,0.465,1.037,1.037,1.037h4.147
		c0.572,0,1.037-0.464,1.037-1.037C38.295,15.948,37.83,15.484,37.258,15.484z"/>
	<path fill="#70496C" d="M45.553,15.484h-4.147c-0.572,0-1.037,0.464-1.037,1.037c0,0.572,0.465,1.037,1.037,1.037h4.147
		c0.573,0,1.037-0.464,1.037-1.037C46.59,15.948,46.126,15.484,45.553,15.484z"/>
	<path fill="#70496C" d="M53.847,15.484h-4.147c-0.572,0-1.037,0.464-1.037,1.037c0,0.572,0.465,1.037,1.037,1.037h4.147
		c0.573,0,1.037-0.464,1.037-1.037C54.884,15.948,54.42,15.484,53.847,15.484z"/>
</g>
<g>
	<path fill="#D6C8D5" d="M34.146,34.147h7.259c0.572,0,1.036-0.464,1.036-1.037v-8.294c0,0.572-0.464,1.037-1.036,1.037h-7.259
		c-0.571,0-1.036-0.464-1.036-1.037v8.294C33.11,33.684,33.575,34.147,34.146,34.147z"/>
	<path fill="#D6C8D5" d="M46.59,34.147h7.257c0.573,0,1.037-0.464,1.037-1.037v-8.294c0,0.572-0.464,1.037-1.037,1.037H46.59
		c-0.574,0-1.037-0.464-1.037-1.037v8.294C45.553,33.684,46.016,34.147,46.59,34.147z"/>
</g>
<path fill="#944888" d="M34.146,25.853h7.259c0.572,0,1.036-0.464,1.036-1.037v-1.037c0-0.572-0.464-1.037-1.036-1.037h-7.259
	c-0.571,0-1.036,0.465-1.036,1.037v1.037C33.11,25.389,33.575,25.853,34.146,25.853z"/>
<path fill="#681C63" d="M46.59,25.853h7.257c0.573,0,1.037-0.464,1.037-1.037v-1.037c0-0.572-0.464-1.037-1.037-1.037H46.59
	c-0.574,0-1.037,0.465-1.037,1.037v1.037C45.553,25.389,46.016,25.853,46.59,25.853z"/>
<path fill="#D6C8D5" d="M36.222,38.296v8.294c0,0.571-0.465,1.037-1.037,1.037h18.662c0.573,0,1.037-0.466,1.037-1.037v-8.294
	c0-0.573-0.464-1.037-1.037-1.037H35.185C35.757,37.259,36.222,37.723,36.222,38.296z"/>
<path fill="#B28DAF" d="M34.146,47.627h1.038c0.572,0,1.037-0.466,1.037-1.037v-8.294c0-0.573-0.465-1.037-1.037-1.037h-1.038
	c-0.571,0-1.036,0.464-1.036,1.037v8.294C33.11,47.161,33.575,47.627,34.146,47.627z"/>
<path fill="#3A0F35" d="M30,13.411H3.043c-0.573,0-1.037,0.465-1.037,1.037v5.185v30.067c0,0.574,0.464,1.037,1.037,1.037H30V19.632
	V13.411z M10.3,16.521h16.59c0.573,0,1.037,0.464,1.037,1.037c0,0.572-0.464,1.037-1.037,1.037H10.3
	c-0.572,0-1.037-0.464-1.037-1.037C9.263,16.985,9.728,16.521,10.3,16.521z M5.116,16.521h1.037c0.572,0,1.036,0.464,1.036,1.037
	c0,0.572-0.464,1.037-1.036,1.037H5.116c-0.572,0-1.037-0.464-1.037-1.037C4.079,16.985,4.544,16.521,5.116,16.521z M15.484,22.742
	h-3.11c-0.572,0-1.037-0.463-1.037-1.036s0.465-1.037,1.037-1.037h3.11c0.573,0,1.036,0.464,1.036,1.037
	S16.058,22.742,15.484,22.742z M16.521,25.853c0,0.573-0.464,1.037-1.036,1.037h-3.11c-0.572,0-1.037-0.464-1.037-1.037
	s0.465-1.037,1.037-1.037h3.11C16.058,24.816,16.521,25.28,16.521,25.853z M5.116,33.11h1.037c0.572,0,1.036,0.465,1.036,1.037
	c0,0.573-0.464,1.037-1.036,1.037H5.116c-0.572,0-1.037-0.464-1.037-1.037C4.079,33.575,4.544,33.11,5.116,33.11z M4.079,30
	c0-0.572,0.465-1.037,1.037-1.037h1.037c0.572,0,1.036,0.465,1.036,1.037c0,0.574-0.464,1.037-1.036,1.037H5.116
	C4.544,31.037,4.079,30.574,4.079,30z M7.189,37.259h1.038c0.572,0,1.036,0.464,1.036,1.037c0,0.571-0.464,1.037-1.036,1.037H7.189
	c-0.572,0-1.036-0.466-1.036-1.037C6.153,37.723,6.617,37.259,7.189,37.259z M8.228,26.89H7.189c-0.572,0-1.036-0.464-1.036-1.037
	s0.464-1.037,1.036-1.037h1.038c0.572,0,1.036,0.464,1.036,1.037S8.8,26.89,8.228,26.89z M8.228,22.742H7.189
	c-0.572,0-1.036-0.463-1.036-1.036s0.464-1.037,1.036-1.037h1.038c0.572,0,1.036,0.464,1.036,1.037
	C9.263,22.278,8.8,22.742,8.228,22.742z M6.153,47.627H5.116c-0.572,0-1.037-0.466-1.037-1.037c0-0.573,0.465-1.037,1.037-1.037
	h1.037c0.572,0,1.036,0.464,1.036,1.037C7.189,47.161,6.726,47.627,6.153,47.627z M8.228,43.479H7.189
	c-0.572,0-1.036-0.465-1.036-1.037c0-0.573,0.464-1.037,1.036-1.037h1.038c0.572,0,1.036,0.464,1.036,1.037
	C9.264,43.015,8.8,43.479,8.228,43.479z M26.89,47.627H10.3c-0.572,0-1.037-0.466-1.037-1.037c0-0.573,0.465-1.037,1.037-1.037
	h16.59c0.573,0,1.037,0.464,1.037,1.037C27.927,47.161,27.463,47.627,26.89,47.627z M12.374,41.405h3.11
	c0.573,0,1.036,0.464,1.036,1.037c0,0.572-0.463,1.037-1.036,1.037h-3.11c-0.572,0-1.037-0.465-1.037-1.037
	C11.337,41.869,11.802,41.405,12.374,41.405z M11.337,38.296c0-0.573,0.465-1.037,1.037-1.037h3.11c0.573,0,1.036,0.464,1.036,1.037
	c0,0.571-0.463,1.037-1.036,1.037h-3.11C11.802,39.331,11.337,38.867,11.337,38.296z M26.89,43.479h-7.258
	c-0.572,0-1.037-0.465-1.037-1.037c0-0.573,0.465-1.037,1.037-1.037h7.258c0.573,0,1.037,0.464,1.037,1.037
	C27.927,43.015,27.463,43.479,26.89,43.479z M26.89,39.331h-7.258c-0.572,0-1.037-0.464-1.037-1.035
	c0-0.573,0.465-1.037,1.037-1.037h7.258c0.573,0,1.037,0.464,1.037,1.037C27.927,38.867,27.463,39.331,26.89,39.331z M26.89,35.185
	H10.3c-0.572,0-1.037-0.464-1.037-1.037c0-0.572,0.465-1.037,1.037-1.037h16.59c0.573,0,1.037,0.465,1.037,1.037
	C27.927,34.721,27.463,35.185,26.89,35.185z M26.89,31.037H10.3c-0.572,0-1.037-0.463-1.037-1.037c0-0.572,0.465-1.037,1.037-1.037
	h16.59c0.573,0,1.037,0.465,1.037,1.037C27.927,30.574,27.463,31.037,26.89,31.037z M26.89,26.89h-7.258
	c-0.572,0-1.037-0.464-1.037-1.037s0.465-1.037,1.037-1.037h7.258c0.573,0,1.037,0.464,1.037,1.037S27.463,26.89,26.89,26.89z
	 M26.89,22.742h-7.258c-0.572,0-1.037-0.463-1.037-1.036s0.465-1.037,1.037-1.037h7.258c0.573,0,1.037,0.464,1.037,1.037
	S27.463,22.742,26.89,22.742z"/>
<path fill="#75166A" d="M10.3,18.595h16.59c0.573,0,1.037-0.464,1.037-1.037c0-0.573-0.464-1.037-1.037-1.037H10.3
	c-0.572,0-1.037,0.464-1.037,1.037C9.263,18.13,9.728,18.595,10.3,18.595z"/>
<g>
	<path fill="#D39CCC" d="M15.484,20.669h-3.11c-0.572,0-1.037,0.463-1.037,1.036s0.465,1.036,1.037,1.036h3.11
		c0.573,0,1.036-0.463,1.036-1.036S16.058,20.669,15.484,20.669z"/>
	<path fill="#D39CCC" d="M15.484,24.816h-3.11c-0.572,0-1.037,0.464-1.037,1.037s0.465,1.037,1.037,1.037h3.11
		c0.573,0,1.036-0.464,1.036-1.037S16.058,24.816,15.484,24.816z"/>
</g>
<path fill="#75166A" d="M26.89,28.963H10.3c-0.572,0-1.037,0.465-1.037,1.037c0,0.574,0.465,1.037,1.037,1.037h16.59
	c0.573,0,1.037-0.463,1.037-1.037C27.927,29.428,27.463,28.963,26.89,28.963z"/>
<g>
	<path fill="#D37DCD" d="M26.89,33.11H10.3c-0.572,0-1.037,0.465-1.037,1.037c0,0.573,0.465,1.037,1.037,1.037h16.59
		c0.573,0,1.037-0.464,1.037-1.037C27.927,33.575,27.463,33.11,26.89,33.11z"/>
	<path fill="#D37DCD" d="M26.89,20.669h-7.258c-0.572,0-1.037,0.463-1.037,1.036s0.465,1.036,1.037,1.036h7.258
		c0.573,0,1.037-0.463,1.037-1.036S27.463,20.669,26.89,20.669z"/>
	<path fill="#D37DCD" d="M26.89,24.816h-7.258c-0.572,0-1.037,0.464-1.037,1.037s0.465,1.037,1.037,1.037h7.258
		c0.573,0,1.037-0.464,1.037-1.037S27.463,24.816,26.89,24.816z"/>
	<path fill="#D37DCD" d="M26.89,37.259h-7.258c-0.572,0-1.037,0.464-1.037,1.037c0,0.571,0.465,1.037,1.037,1.037h7.258
		c0.573,0,1.037-0.466,1.037-1.037C27.927,37.723,27.463,37.259,26.89,37.259z"/>
	<path fill="#D37DCD" d="M26.89,41.405h-7.258c-0.572,0-1.037,0.464-1.037,1.037c0,0.572,0.465,1.037,1.037,1.037h7.258
		c0.573,0,1.037-0.465,1.037-1.037C27.927,41.869,27.463,41.405,26.89,41.405z"/>
</g>
<g>
	<path fill="#D39CCC" d="M12.374,39.331h3.11c0.573,0,1.036-0.464,1.036-1.035c0-0.573-0.463-1.037-1.036-1.037h-3.11
		c-0.572,0-1.037,0.464-1.037,1.037C11.337,38.867,11.802,39.331,12.374,39.331z"/>
	<path fill="#D39CCC" d="M12.374,43.479h3.11c0.573,0,1.036-0.465,1.036-1.037c0-0.573-0.463-1.037-1.036-1.037h-3.11
		c-0.572,0-1.037,0.464-1.037,1.037C11.337,43.015,11.802,43.479,12.374,43.479z"/>
</g>
<path fill="#75166A" d="M26.89,45.553H10.3c-0.572,0-1.037,0.464-1.037,1.037c0,0.571,0.465,1.037,1.037,1.037h16.59
	c0.573,0,1.037-0.466,1.037-1.037C27.927,46.017,27.463,45.553,26.89,45.553z"/>
<g>
	<path fill="#944888" d="M5.116,18.595h1.037c0.572,0,1.036-0.464,1.036-1.037c0-0.573-0.464-1.037-1.036-1.037H5.116
		c-0.572,0-1.037,0.464-1.037,1.037C4.079,18.13,4.544,18.595,5.116,18.595z"/>
	<path fill="#944888" d="M8.228,20.669H7.189c-0.572,0-1.036,0.463-1.036,1.036s0.464,1.036,1.036,1.036h1.038
		c0.572,0,1.036-0.463,1.036-1.036C9.263,21.133,8.8,20.669,8.228,20.669z"/>
	<path fill="#944888" d="M8.228,24.816H7.189c-0.572,0-1.036,0.464-1.036,1.037s0.464,1.037,1.036,1.037h1.038
		c0.572,0,1.036-0.464,1.036-1.037S8.8,24.816,8.228,24.816z"/>
	<path fill="#944888" d="M5.116,31.037h1.037c0.572,0,1.036-0.463,1.036-1.037c0-0.572-0.464-1.037-1.036-1.037H5.116
		c-0.572,0-1.037,0.465-1.037,1.037C4.079,30.574,4.544,31.037,5.116,31.037z"/>
	<path fill="#944888" d="M5.116,35.185h1.037c0.572,0,1.036-0.464,1.036-1.037c0-0.572-0.464-1.037-1.036-1.037H5.116
		c-0.572,0-1.037,0.465-1.037,1.037C4.079,34.721,4.544,35.185,5.116,35.185z"/>
	<path fill="#944888" d="M7.189,39.331h1.038c0.572,0,1.036-0.464,1.036-1.035c0-0.573-0.464-1.037-1.036-1.037H7.189
		c-0.572,0-1.036,0.464-1.036,1.037C6.153,38.867,6.617,39.331,7.189,39.331z"/>
	<path fill="#944888" d="M8.228,41.405H7.189c-0.572,0-1.036,0.464-1.036,1.037c0,0.572,0.464,1.037,1.036,1.037h1.038
		c0.572,0,1.036-0.465,1.036-1.037C9.264,41.869,8.8,41.405,8.228,41.405z"/>
	<path fill="#944888" d="M6.153,45.553H5.116c-0.572,0-1.037,0.464-1.037,1.037c0,0.571,0.465,1.037,1.037,1.037h1.037
		c0.572,0,1.036-0.466,1.036-1.037C7.189,46.017,6.726,45.553,6.153,45.553z"/>
</g>
</svg>
