<?xml version="1.0" encoding="utf-8"?>
<!-- Generator: Adobe Illustrator 16.0.0, SVG Export Plug-In . SVG Version: 6.00 Build 0)  -->
<!DOCTYPE svg PUBLIC "-//W3C//DTD SVG 1.1//EN" "http://www.w3.org/Graphics/SVG/1.1/DTD/svg11.dtd">
<svg version="1.1" id="Layer_1" xmlns="http://www.w3.org/2000/svg" xmlns:xlink="http://www.w3.org/1999/xlink" x="0px" y="0px"
	 width="60px" height="60px" viewBox="0 0 60 60" enable-background="new 0 0 60 60" xml:space="preserve">
<g>
	<polygon fill="#944888" points="37.923,53.327 22.354,53.327 24.333,43.7 35.945,43.7 	"/>
	<polygon fill="#823D7A" points="37.923,53.327 35.945,43.7 24.333,43.7 33.955,53.327 	"/>
	<rect x="18.186" y="53.33" fill="#C161B6" width="23.904" height="1.162"/>
	<path fill="#944888" d="M1.724,4.101c-0.802,0-1.454,0.656-1.454,1.455v36.69c0,0.804,0.652,1.454,1.454,1.454h56.839
		c0.799,0,1.453-0.65,1.453-1.454V5.556c0-0.798-0.656-1.455-1.453-1.455H1.724z"/>
	<rect x="3.29" y="7.118" fill="#D8AFD3" width="53.705" height="33.569"/>
	<rect x="5.244" y="13.375" fill="#F7EDF6" width="49.797" height="25.354"/>
	<rect x="3.29" y="7.118" fill="#511F4B" width="53.705" height="4.305"/>
	<g>
		<path fill="#FFFFFF" d="M54.243,9.304c0,0.35-0.286,0.638-0.635,0.638H22.279c-0.35,0-0.639-0.288-0.639-0.638V9.241
			c0-0.35,0.289-0.638,0.639-0.638h31.329c0.349,0,0.635,0.288,0.635,0.638V9.304L54.243,9.304z"/>
		<circle fill="#FFFFFF" cx="9.438" cy="9.271" r="0.669"/>
		<path fill="#FFFFFF" d="M14,9.941c-0.369,0-0.669-0.301-0.669-0.67c0-0.368,0.3-0.668,0.669-0.668c0.367,0,0.667,0.3,0.667,0.668
			C14.667,9.64,14.368,9.941,14,9.941z"/>
		<circle fill="#FFFFFF" cx="18.561" cy="9.271" r="0.669"/>
	</g>
	<path fill="#34495E" d="M41.662,20.663V19.64l-0.754-0.255c-0.04-0.229-0.1-0.453-0.178-0.667l0.523-0.601l-0.511-0.887
		l-0.78,0.154c-0.075-0.087-0.153-0.171-0.234-0.254c-0.083-0.08-0.166-0.157-0.253-0.234l0.155-0.78l-0.889-0.51l-0.6,0.521
		c-0.213-0.075-0.438-0.136-0.665-0.178l-0.258-0.751h-1.024l-0.257,0.751c-0.229,0.042-0.45,0.104-0.666,0.178l-0.597-0.521
		l-0.888,0.51l0.154,0.78c-0.088,0.077-0.174,0.154-0.255,0.234c-0.08,0.083-0.159,0.167-0.235,0.254l-0.779-0.152l-0.512,0.885
		l0.522,0.601c-0.078,0.213-0.136,0.437-0.178,0.667l-0.75,0.255v1.023l0.75,0.258c0.042,0.231,0.103,0.452,0.178,0.667
		l-0.522,0.599l0.512,0.887l0.779-0.153l-0.002-0.004c0.076,0.089,0.155,0.175,0.237,0.257c0.084,0.083,0.169,0.163,0.258,0.237
		l-0.156,0.777l0.887,0.512l0.597-0.523c0.217,0.076,0.437,0.137,0.666,0.179l0.257,0.75h1.025l0.257-0.75
		c0.229-0.043,0.453-0.103,0.666-0.179l0.599,0.523l0.889-0.512l-0.155-0.779l-0.004,0.002c0.089-0.074,0.175-0.154,0.257-0.237
		c0.081-0.081,0.159-0.166,0.235-0.254l0.78,0.155l0.511-0.887l-0.524-0.599c0.08-0.214,0.138-0.436,0.178-0.667L41.662,20.663z
		 M36.708,22.2c-1.13,0-2.047-0.919-2.047-2.049c0-1.128,0.917-2.045,2.047-2.045c1.132,0,2.047,0.917,2.047,2.045
		C38.755,21.281,37.841,22.2,36.708,22.2z"/>
	<path fill="#944888" d="M34.514,29.785v-1.644l-1.206-0.41c-0.064-0.367-0.161-0.725-0.284-1.071l0.837-0.959l-0.82-1.424
		l-1.251,0.249c-0.123-0.141-0.246-0.276-0.378-0.407c-0.131-0.131-0.266-0.254-0.406-0.375l0.248-1.252l-1.425-0.821l-0.961,0.838
		c-0.345-0.123-0.702-0.221-1.069-0.288l-0.412-1.206h-1.644l-0.41,1.206c-0.367,0.067-0.724,0.165-1.069,0.288l-0.958-0.838
		l-1.424,0.82l0.249,1.252c-0.142,0.121-0.277,0.244-0.408,0.375c-0.129,0.131-0.255,0.267-0.378,0.407l-1.25-0.246l-0.822,1.422
		l0.838,0.959c-0.122,0.346-0.221,0.704-0.286,1.071l-1.206,0.41v1.643l1.206,0.413c0.065,0.37,0.163,0.724,0.286,1.069
		l-0.838,0.959l0.824,1.424l1.249-0.243l-0.002-0.01c0.12,0.143,0.249,0.281,0.379,0.412c0.132,0.134,0.269,0.261,0.414,0.379
		l-0.255,1.248l1.426,0.824l0.958-0.84c0.345,0.124,0.702,0.218,1.069,0.285l0.41,1.205h1.645l0.411-1.205
		c0.367-0.067,0.724-0.161,1.068-0.285l0.961,0.84l1.425-0.824l-0.248-1.25l-0.005,0.002c0.14-0.118,0.279-0.245,0.411-0.379
		c0.131-0.131,0.253-0.268,0.377-0.406l1.25,0.247l0.822-1.424l-0.838-0.959c0.122-0.345,0.219-0.699,0.284-1.069L34.514,29.785z
		 M26.566,30.757c-0.991,0-1.792-0.801-1.792-1.794c0-0.987,0.801-1.79,1.792-1.79s1.793,0.802,1.793,1.79
		C28.359,29.953,27.558,30.757,26.566,30.757z"/>
	<path fill="#34495E" d="M26.566,25.106c-2.129,0-3.858,1.729-3.858,3.856c0,2.131,1.729,3.861,3.858,3.861
		c2.133,0,3.857-1.729,3.857-3.861C30.423,26.834,28.699,25.106,26.566,25.106z M26.566,30.695c-0.956,0-1.731-0.774-1.731-1.733
		c0-0.954,0.776-1.73,1.731-1.73c0.959,0,1.732,0.776,1.732,1.73C28.297,29.921,27.524,30.695,26.566,30.695z"/>
</g>
</svg>
